<svg xmlns="http://www.w3.org/2000/svg" shape-rendering="geometricPrecision" text-rendering="geometricPrecision" image-rendering="optimizeQuality" fill-rule="evenodd" clip-rule="evenodd" viewBox="0 0 512 491.29"><path fill-rule="nonzero" d="M48.45 405.87c-4.56 4.03-11.52 3.61-15.56-.95-4.03-4.56-3.6-11.53.96-15.56 12.51-11.05 21.65-25.3 26.92-43.2 5.45-18.48 6.81-40.96 3.6-67.91-5.94-29.16-7.01-56.08-3.53-80.38 3.63-25.47 12.24-48.08 25.4-67.39 3.44-5.03 10.31-6.33 15.34-2.89 5.04 3.43 6.33 10.3 2.9 15.33-11.25 16.51-18.63 35.99-21.78 58.06-3.13 21.87-2.14 46.28 3.28 72.86.14.53.25 1.09.32 1.66 3.6 30.01 1.95 55.48-4.36 76.89-6.49 22.03-17.86 39.67-33.49 53.48zm50.9-4.62c3.24-5.16 10.06-6.7 15.21-3.46s6.7 10.05 3.46 15.21l-20.65 32.91c-3.24 5.16-10.05 6.71-15.21 3.46-5.15-3.24-6.7-10.05-3.45-15.2l20.64-32.92zm105.15 11.31c1.31-5.94 7.19-9.7 13.13-8.39 5.94 1.31 9.7 7.2 8.39 13.14l-8.93 40.17c-1.31 5.94-7.2 9.69-13.14 8.38-5.94-1.31-9.69-7.19-8.38-13.13l8.93-40.17zm11.63-197.63c-1.1-5.98 2.87-11.73 8.86-12.83 5.98-1.1 11.73 2.87 12.83 8.86 5.21 28 7.71 56.3 7.79 84.75.09 28.31-2.23 56.75-6.63 85.2-.93 6.01-6.56 10.13-12.57 9.2-6.02-.93-10.14-6.56-9.21-12.57 4.23-27.33 6.46-54.65 6.38-81.83-.08-27.04-2.47-54-7.45-80.78zm-68.3 247.1c-3.52 4.98-10.41 6.16-15.38 2.64-4.98-3.51-6.16-10.4-2.65-15.38 7.14-10.07 13.21-21.17 18.17-33.29l.24-.53c4.84-11.96 8.6-24.95 11.22-39l.01-.04c4.95-26.57 2.57-60.57.32-92.7-.76-10.8-1.5-21.42-1.98-32.35-.69-15.96-.98-31.65 1.99-45.93 3.27-15.68 10.32-29.31 24.43-39.19 3.19-2.23 6.61-4.21 10.29-5.91 3.69-1.71 7.69-3.2 11.98-4.42 3.2-.91 6.36-1.63 9.44-2.16 21.14-3.61 37.93 1.88 50.89 13.19 12.26 10.7 20.6 26.45 25.69 44.31 1.52 5.33 2.76 10.9 3.73 16.6.53 3.09.98 6.24 1.35 9.38.36 3.1.65 6.29.86 9.53.95 14.33 1.2 30.21.81 46.9a134.582 134.582 0 0 0-24.45 42.27c2.61-31.4 3.23-62.23 1.55-87.78-.18-2.7-.44-5.51-.78-8.41-.31-2.71-.71-5.44-1.17-8.17-.83-4.87-1.91-9.66-3.22-14.26-3.99-14.04-10.18-26.1-18.92-33.73-8.04-7.01-18.76-10.36-32.62-7.99-2.25.39-4.62.93-7.1 1.64-3.24.92-6.16 1.99-8.77 3.2-2.62 1.21-4.91 2.53-6.91 3.92-8.75 6.13-13.23 15.08-15.41 25.58-2.48 11.88-2.19 25.99-1.56 40.48.42 9.58 1.19 20.6 1.98 31.83 2.34 33.42 4.82 68.8-.68 98.24-2.9 15.47-7.1 29.89-12.53 43.3l-.23.61c-5.56 13.57-12.44 26.11-20.59 37.62zm132.98-21.52c-1.99 8.08-4.14 15.77-6.42 22.95-1.84 5.81-8.05 9.04-13.86 7.2-5.82-1.84-9.04-8.06-7.2-13.87 5.72-18 10.55-39.59 14.33-62.65 1.59 16.5 6.15 32.14 13.15 46.37zm-150.88-71.2c-1.05 6.02-6.77 10.04-12.78 8.99-6.02-1.05-10.04-6.78-8.99-12.79 2.34-13.19 3.67-27.94 4.14-43.99.47-16.3.07-34.17-1.02-53.27-.24-4.24-.59-9.29-.94-14.18-2.31-32.69-4.17-59.04 14.99-93.11 4.22-7.52 9.31-14.51 15.35-20.92 6.05-6.42 13-12.2 20.93-17.24.55-.35 1.13-.65 1.71-.89 11.64-5.59 23.26-9.93 34.83-12.75 11.97-2.93 23.83-4.21 35.54-3.58 6.08.31 10.77 5.49 10.46 11.58-.31 6.08-5.5 10.77-11.58 10.46-9.57-.52-19.33.55-29.24 2.97-9.87 2.41-19.99 6.2-30.28 11.14-6.25 4.01-11.66 8.51-16.3 13.43-4.74 5.03-8.77 10.59-12.15 16.6-15.93 28.33-14.27 51.73-12.23 80.75v.04c.31 4.37.63 8.85.95 14.49 1.11 19.5 1.51 37.95 1.01 55.08-.5 17.39-1.92 33.23-4.4 47.19zm142.36-229.44c-5.2-3.17-6.84-9.97-3.67-15.17 3.17-5.2 9.97-6.84 15.17-3.67 2.96 1.81 5.99 3.87 9.07 6.19 3.12 2.34 6.08 4.78 8.86 7.31 32.16 29.2 46.83 73.02 51.48 120.83-7.42 2.87-14.52 6.38-21.23 10.45-3.27-46.1-15.78-88.32-45.11-114.95-2.51-2.28-4.92-4.28-7.22-6.01a89.242 89.242 0 0 0-7.35-4.98zM18.24 364.32c-4.6 3.98-11.57 3.48-15.55-1.13-3.99-4.6-3.48-11.57 1.12-15.55 2.51-2.18 4.73-4.77 6.63-7.79 1.97-3.12 3.63-6.77 4.94-10.95 6.74-21.5 2.65-44.05-1.5-66.9-2.84-15.64-5.7-31.41-5.6-47.95.5-84.39 53.27-153.21 122.33-188.44 28.97-14.78 60.9-23.67 93.1-25.33 32.35-1.66 64.94 4 95.06 18.32 66.91 31.83 121.31 106.06 132.96 237.28-7.33-2.92-14.98-5.23-22.87-6.84-12.37-116.66-60.63-182.47-119.51-210.48-26.72-12.71-55.71-17.72-84.52-16.24-28.98 1.49-57.87 9.56-84.19 23C78.36 77.09 30.76 138.78 30.31 214.14c-.08 14.52 2.6 29.31 5.26 43.96 4.64 25.58 9.23 50.82.9 77.37-1.88 5.98-4.35 11.36-7.36 16.13-3.08 4.89-6.72 9.12-10.87 12.72zM151.97 98.96c-5.27 3.06-12.03 1.26-15.08-4.01-3.05-5.28-1.25-12.03 4.02-15.09 11.48-6.62 23.7-11.88 36.35-15.72 34.64-10.53 72.27-10.23 106.47 1.78 34.39 12.08 65.31 35.89 86.34 72.3 6.99 12.12 12.9 25.69 17.47 40.72 6.16 20.29 10.45 42.77 12.8 67.4-7.5.08-14.86.77-22.02 2.03-2.21-23.32-6.19-44.35-11.87-63.04-4.03-13.27-9.27-25.27-15.48-36.05-18.22-31.54-44.9-52.14-74.5-62.53-29.78-10.46-62.58-10.71-92.82-1.53-10.94 3.33-21.6 7.92-31.68 13.74z"/><path fill="#00A912" d="M401.81 270.9c60.88 0 110.19 49.35 110.19 110.19 0 60.88-49.35 110.2-110.19 110.2-60.88 0-110.2-49.35-110.2-110.2 0-60.87 49.35-110.19 110.2-110.19zm-34.2 92.68 19.53 18.45 46.15-46.79c3.83-3.88 6.23-6.99 10.94-2.14l15.31 15.68c5.02 4.97 4.77 7.88.03 12.51l-63.69 62.66c-10 9.8-8.26 10.4-18.4.35l-35.63-35.44c-2.12-2.29-1.89-4.6.43-6.89l17.76-18.41c2.69-2.84 4.83-2.59 7.57.02z"/></svg>