<?xml version="1.0" encoding="UTF-8" standalone="no"?>
<svg xmlns="http://www.w3.org/2000/svg" width="450" height="450">
  <path fill="orange" stroke="#000" stroke-width="2" d="m273.79665 278.39483-97.78139.02314c-.0001-15.78762 4.65196-28.60499 8.23279-38.45215 3.58062-9.84684 8.91102-18.83934 15.99121-26.97754 7.07995-8.13782 22.98976-22.46073 47.72949-42.96875 13.18341-10.74195 19.7752-20.58894 19.77539-29.54101-.00019-8.95156-2.64504-15.90956-7.93457-20.87403-5.28989-4.96391-13.30583-7.446-24.04785-7.44629-11.55614.00029-21.1183 3.82516-28.68652 11.47461-7.56848 7.65001-12.4106 20.99635-14.52637 40.03907l-94.726564-11.71875c3.255184-34.83045 15.909794-62.865905 37.963864-84.10645 22.05396-21.239881 55.8674-31.859988 101.44043-31.860352 35.48158.000364 64.12739 7.405956 85.9375 22.216797 29.62213 20.019853 44.43331 46.712535 44.4336 80.078125-.00029 13.83488-3.82516 27.18122-11.47461 40.03906-7.65001 12.85828-23.275 28.56465-46.875 47.11914-17.86986 10.15931-34.28219 28.11025-34.70503 37.09544l-.74637 15.85994zm-98.09352 33.95869h99.36523V400h-99.36523v-87.64648z"/>
</svg>